<svg width="10" height="7" viewBox="0 0 10 7" fill="none" xmlns="http://www.w3.org/2000/svg">
<path d="M9.30589 0.155619L4.99956 5.6876L0.693224 0.155619C0.616284 0.0565809 0.512998 0.00113538 0.405445 0.00113538C0.297893 0.00113538 0.194607 0.0565809 0.117667 0.155619C0.080413 0.203722 0.0508167 0.261137 0.0306119 0.324503C0.0104071 0.387869 0 0.455911 0 0.524644C0 0.593377 0.0104071 0.661419 0.0306119 0.724785C0.0508167 0.788151 0.080413 0.845567 0.117667 0.89367L4.69886 6.77992C4.77931 6.88326 4.88721 6.9411 4.99956 6.9411C5.11191 6.9411 5.21981 6.88326 5.30026 6.77992L9.88145 0.894806C9.91897 0.846667 9.94879 0.78911 9.96915 0.725534C9.98951 0.661958 10 0.593651 10 0.524644C10 0.455638 9.98951 0.38733 9.96915 0.323754C9.94879 0.260178 9.91897 0.202622 9.88145 0.154483C9.80451 0.055445 9.70122 0 9.59367 0C9.48612 0 9.38283 0.055445 9.30589 0.154483V0.155619Z" fill="black"/>
</svg>
