<svg width="31" height="20" viewBox="0 0 31 20" fill="none" xmlns="http://www.w3.org/2000/svg">
<path d="M8.98983 0C9.88142 0 10.706 0.0714284 11.4595 0.282857C12.2143 0.424285 12.8324 0.707142 13.3808 1.06C13.9305 1.41285 14.3421 1.90857 14.6156 2.54428C14.8905 3.17999 15.0286 3.95856 15.0286 4.8057C15.0286 5.7957 14.8221 6.64284 14.3421 7.27856C13.9305 7.9157 13.2441 8.47998 12.4208 8.90427C13.5873 9.25855 14.4789 9.89427 15.0286 10.7414C15.577 11.59 15.9202 12.65 15.9202 13.8514C15.9202 14.8414 15.7137 15.6885 15.3705 16.3957C15.0286 17.1028 14.4789 17.7385 13.8608 18.1628C13.1893 18.6176 12.4471 18.9519 11.666 19.1514C10.8428 19.3642 10.0196 19.5057 9.19633 19.5057H0V0H8.98983ZM8.44009 7.91427C9.19494 7.91427 9.81305 7.70284 10.293 7.34999C10.773 6.99713 10.9795 6.35999 10.9795 5.58285C10.9795 5.15856 10.9097 4.73428 10.773 4.45285C10.6363 4.16999 10.4298 3.95714 10.1563 3.74571C9.87655 3.58518 9.57585 3.46636 9.26331 3.39285C8.92007 3.32142 8.57822 3.32142 8.16522 3.32142H4.18586V7.9157L8.44009 7.91427ZM8.64659 16.2543C9.0582 16.2543 9.46981 16.1828 9.81305 16.1128C10.1563 16.0414 10.4995 15.9014 10.773 15.6885C11.0526 15.4817 11.2865 15.2169 11.4595 14.9114C11.5962 14.5585 11.7344 14.1343 11.7344 13.64C11.7344 12.65 11.4595 11.9428 10.9111 11.4485C10.3614 11.0243 9.60655 10.8128 8.71496 10.8128H4.18586V16.2557L8.64659 16.2543ZM21.8906 16.1828C22.439 16.7485 23.2622 17.0314 24.3603 17.0314C25.1152 17.0314 25.8016 16.82 26.35 16.4671C26.8997 16.0428 27.243 15.6185 27.3797 15.1943H30.7423C30.1926 16.89 29.3694 18.0914 28.2727 18.8685C27.1732 19.5757 25.87 20 24.2919 20C23.2823 20.0032 22.2811 19.8112 21.3409 19.4342C20.4949 19.1094 19.7405 18.5755 19.1447 17.88C18.5075 17.2294 18.0365 16.4282 17.7732 15.5471C17.4299 14.6285 17.2918 13.64 17.2918 12.5085C17.2918 11.4485 17.4299 10.46 17.7732 9.53998C18.1036 8.65429 18.5924 7.83942 19.2145 7.13713C19.8312 6.50142 20.5861 5.93713 21.4093 5.58285C22.3256 5.20579 23.3044 5.0137 24.2919 5.01713C25.4584 5.01713 26.4881 5.22999 27.3797 5.72428C28.2727 6.21856 28.9578 6.78427 29.5061 7.63284C30.0559 8.40998 30.4689 9.32855 30.7423 10.3186C30.8791 11.3071 30.9475 12.2971 30.8791 13.4271H20.9293C20.9293 14.5585 21.3409 15.6185 21.8906 16.1843M26.2132 8.76427C25.7333 8.26998 24.9784 7.98713 24.0854 7.98713C23.5618 7.97909 23.0441 8.10011 22.5757 8.33998C22.1641 8.55284 21.8906 8.8357 21.6158 9.11855C21.3632 9.39177 21.1961 9.73601 21.1358 10.1071C21.066 10.4614 20.9977 10.7428 20.9977 11.0257H27.1732C27.0365 9.96569 26.6932 9.25998 26.2132 8.76427ZM20.1744 1.34285H27.8597V3.25142H20.1758L20.1744 1.34285Z" fill="white"/>
</svg>
