<svg width="48" height="30" viewBox="0 0 48 30" fill="none" xmlns="http://www.w3.org/2000/svg">
<path d="M13.8064 0C15.1757 0 16.4421 0.107143 17.5993 0.424285C18.7585 0.636427 19.7078 1.06071 20.55 1.59C21.3942 2.11928 22.0264 2.86285 22.4464 3.81642C22.8685 4.76999 23.0807 5.93785 23.0807 7.20856C23.0807 8.69355 22.7635 9.96427 22.0264 10.9178C21.3942 11.8735 20.34 12.72 19.0757 13.3564C20.8671 13.8878 22.2364 14.8414 23.0807 16.1121C23.9228 17.385 24.4499 18.975 24.4499 20.7771C24.4499 22.2621 24.1328 23.5328 23.6057 24.5935C23.0807 25.6542 22.2364 26.6078 21.2871 27.2442C20.2559 27.9264 19.116 28.4279 17.9164 28.7271C16.6521 29.0464 15.3878 29.2585 14.1235 29.2585H0V0H13.8064ZM12.9621 11.8714C14.1214 11.8714 15.0707 11.5543 15.8078 11.025C16.545 10.4957 16.8621 9.53998 16.8621 8.37427C16.8621 7.73784 16.755 7.10142 16.545 6.67927C16.335 6.25499 16.0178 5.9357 15.5978 5.61856C15.1682 5.37777 14.7064 5.19955 14.2264 5.08928C13.6993 4.98213 13.1743 4.98213 12.54 4.98213H6.42856V11.8735L12.9621 11.8714ZM13.2793 24.3814C13.9114 24.3814 14.5435 24.2742 15.0707 24.1692C15.5978 24.0621 16.125 23.8521 16.545 23.5328C16.9744 23.2226 17.3336 22.8254 17.5993 22.3671C17.8093 21.8378 18.0214 21.2014 18.0214 20.46C18.0214 18.975 17.5992 17.9143 16.7571 17.1728C15.9128 16.5364 14.7535 16.2193 13.3843 16.2193H6.42856V24.3835L13.2793 24.3814ZM33.6192 24.2742C34.4614 25.1228 35.7256 25.5471 37.4121 25.5471C38.5713 25.5471 39.6256 25.23 40.4678 24.7007C41.3121 24.0642 41.8392 23.4278 42.0492 22.7914H47.2135C46.3692 25.335 45.1049 27.1371 43.4206 28.3028C41.7321 29.3635 39.7306 29.9999 37.3071 29.9999C35.7564 30.0047 34.2188 29.7168 32.7749 29.1514C31.4757 28.6641 30.317 27.8632 29.4021 26.8199C28.4234 25.844 27.7 24.6423 27.2957 23.3207C26.7685 21.9428 26.5564 20.46 26.5564 18.7628C26.5564 17.1728 26.7685 15.69 27.2957 14.31C27.8031 12.9814 28.5538 11.7591 29.5092 10.7057C30.4564 9.75212 31.6156 8.9057 32.8799 8.37427C34.2872 7.80869 35.7905 7.52055 37.3071 7.5257C39.0985 7.5257 40.6799 7.84499 42.0492 8.58641C43.4206 9.32784 44.4728 10.1764 45.3149 11.4493C46.1592 12.615 46.7935 13.9928 47.2135 15.4778C47.4235 16.9607 47.5285 18.4457 47.4235 20.1407H32.1428C32.1428 21.8378 32.7749 23.4278 33.6192 24.2764M40.2578 13.1464C39.5206 12.405 38.3613 11.9807 36.9899 11.9807C36.1858 11.9686 35.3906 12.1502 34.6714 12.51C34.0392 12.8293 33.6192 13.2535 33.1971 13.6778C32.8092 14.0877 32.5525 14.604 32.4599 15.1607C32.3528 15.6921 32.2478 16.1143 32.2478 16.5385H41.7321C41.5221 14.9485 40.9949 13.89 40.2578 13.1464ZM30.9835 2.01428H42.7863V4.87713H30.9857L30.9835 2.01428Z" fill="#551A8B"/>
</svg>
