<svg width="20" height="20" viewBox="0 0 20 20" fill="none" xmlns="http://www.w3.org/2000/svg">
<path d="M5.66487 0H13.8692C16.9946 0 19.5341 2.6 19.5341 5.8V14.2C19.5341 15.7383 18.9372 17.2135 17.8748 18.3012C16.8125 19.3889 15.3716 20 13.8692 20H5.66487C2.53943 20 0 17.4 0 14.2V5.8C0 4.26174 0.596833 2.78649 1.6592 1.69878C2.72157 0.61107 4.16246 0 5.66487 0ZM5.46953 2C4.537 2 3.64266 2.37928 2.98326 3.05442C2.32385 3.72955 1.95341 4.64522 1.95341 5.6V14.4C1.95341 16.39 3.5259 18 5.46953 18H14.0645C14.9971 18 15.8914 17.6207 16.5508 16.9456C17.2102 16.2705 17.5806 15.3548 17.5806 14.4V5.6C17.5806 3.61 16.0082 2 14.0645 2H5.46953ZM14.8947 3.5C15.2185 3.5 15.529 3.6317 15.758 3.86612C15.987 4.10054 16.1156 4.41848 16.1156 4.75C16.1156 5.08152 15.987 5.39946 15.758 5.63388C15.529 5.8683 15.2185 6 14.8947 6C14.5709 6 14.2604 5.8683 14.0314 5.63388C13.8025 5.39946 13.6738 5.08152 13.6738 4.75C13.6738 4.41848 13.8025 4.10054 14.0314 3.86612C14.2604 3.6317 14.5709 3.5 14.8947 3.5ZM9.76703 5C11.0622 5 12.3044 5.52678 13.2202 6.46447C14.136 7.40215 14.6505 8.67392 14.6505 10C14.6505 11.3261 14.136 12.5979 13.2202 13.5355C12.3044 14.4732 11.0622 15 9.76703 15C8.47184 15 7.2297 14.4732 6.31386 13.5355C5.39802 12.5979 4.88351 11.3261 4.88351 10C4.88351 8.67392 5.39802 7.40215 6.31386 6.46447C7.2297 5.52678 8.47184 5 9.76703 5ZM9.76703 7C8.98991 7 8.24463 7.31607 7.69513 7.87868C7.14562 8.44129 6.83692 9.20435 6.83692 10C6.83692 10.7956 7.14562 11.5587 7.69513 12.1213C8.24463 12.6839 8.98991 13 9.76703 13C10.5441 13 11.2894 12.6839 11.8389 12.1213C12.3884 11.5587 12.6971 10.7956 12.6971 10C12.6971 9.20435 12.3884 8.44129 11.8389 7.87868C11.2894 7.31607 10.5441 7 9.76703 7Z" fill="white"/>
</svg>
