<svg width="20" height="20" viewBox="0 0 20 20" fill="none" xmlns="http://www.w3.org/2000/svg">
<path d="M17.3636 0C17.9392 0 18.4913 0.234126 18.8983 0.650874C19.3054 1.06762 19.534 1.63285 19.534 2.22222V17.7778C19.534 18.3671 19.3054 18.9324 18.8983 19.3491C18.4913 19.7659 17.9392 20 17.3636 20H2.17045C1.59481 20 1.04275 19.7659 0.63571 19.3491C0.228672 18.9324 0 18.3671 0 17.7778V2.22222C0 1.63285 0.228672 1.06762 0.63571 0.650874C1.04275 0.234126 1.59481 0 2.17045 0H17.3636ZM16.821 17.2222V11.3333C16.821 10.3727 16.4483 9.45133 15.7848 8.77204C15.1213 8.09274 14.2214 7.71111 13.2832 7.71111C12.3607 7.71111 11.2863 8.28889 10.7654 9.15556V7.92222H7.73765V17.2222H10.7654V11.7444C10.7654 10.8889 11.4383 10.1889 12.2739 10.1889C12.6768 10.1889 13.0633 10.3528 13.3482 10.6445C13.6331 10.9362 13.7932 11.3319 13.7932 11.7444V17.2222H16.821ZM4.21067 6.17778C4.69421 6.17778 5.15794 5.98111 5.49985 5.63104C5.84177 5.28098 6.03385 4.80618 6.03385 4.31111C6.03385 3.27778 5.21993 2.43333 4.21067 2.43333C3.72426 2.43333 3.25777 2.63117 2.91382 2.98332C2.56987 3.33547 2.37664 3.81309 2.37664 4.31111C2.37664 5.34444 3.20141 6.17778 4.21067 6.17778ZM5.71914 17.2222V7.92222H2.71306V17.2222H5.71914Z" fill="white"/>
</svg>
